<?xml version="1.0" encoding="utf-8"?>
<!-- Generator: Adobe Illustrator 24.0.1, SVG Export Plug-In . SVG Version: 6.00 Build 0)  -->
<svg version="1.1" id="Layer_1" xmlns="http://www.w3.org/2000/svg" xmlns:xlink="http://www.w3.org/1999/xlink" x="0px" y="0px"
	 viewBox="0 0 1536 1536" style="enable-background:new 0 0 1536 1536;" xml:space="preserve">
<style type="text/css">
	.st0{fill:#2E536B;}
	.st1{clip-path:url(#SVGID_5_);}
	.st2{clip-path:url(#SVGID_6_);}
	.st3{clip-path:url(#SVGID_7_);}
	.st4{clip-path:url(#SVGID_8_);}
	.st5{fill:#B2B3B8;}
	.st6{fill:#123856;}
	.st7{fill:#FF4739;}
	.st8{fill:#64E2DC;}
	.st9{fill:#FCF2D7;}
</style>
<rect class="st0" width="1536" height="1536"/>
<g>
	<g>
		<g>
			<defs>
				<path id="SVGID_3_" d="M294.72,0h958.14"/>
			</defs>
			<defs>
				<path id="SVGID_4_" d="M294.72,1550"/>
			</defs>
			<defs>
				<path id="SVGID_2_" d="M1547.58,1254.82"/>
			</defs>
			<defs>
				<path id="SVGID_1_" d="M1547.58,295.18"/>
			</defs>
			<use xlink:href="#SVGID_3_"  style="overflow:visible;fill:#2E536B;"/>
			<use xlink:href="#SVGID_4_"  style="overflow:visible;fill:#2E536B;"/>
			<use xlink:href="#SVGID_2_"  style="overflow:visible;fill:#2E536B;"/>
			<use xlink:href="#SVGID_1_"  style="overflow:visible;fill:#2E536B;"/>
			<clipPath id="SVGID_5_">
				<use xlink:href="#SVGID_3_"  style="overflow:visible;"/>
			</clipPath>
			<clipPath id="SVGID_6_" class="st1">
				<use xlink:href="#SVGID_4_"  style="overflow:visible;"/>
			</clipPath>
			<clipPath id="SVGID_7_" class="st2">
				<use xlink:href="#SVGID_2_"  style="overflow:visible;"/>
			</clipPath>
			<clipPath id="SVGID_8_" class="st3">
				<use xlink:href="#SVGID_1_"  style="overflow:visible;"/>
			</clipPath>
			<g class="st4">
				<path class="st5" d="M1218.52,184.64H329.1c-29.09,0-52.69,27.98-52.69,62.5v1055.69c0,34.52,23.6,62.53,52.69,62.53h889.42
					c29.09,0,52.65-28.02,52.65-62.53V247.14C1271.17,212.62,1247.61,184.64,1218.52,184.64z"/>
			</g>
		</g>
		<g>
			<path class="st6" d="M1271.17,1302.82c0,34.52-23.56,62.53-52.65,62.53H329.1c-29.09,0-52.69-28.02-52.69-62.53V247.14
				c0-34.51,23.6-62.5,52.69-62.5h889.42c29.09,0,52.65,27.98,52.65,62.5V1302.82z"/>
			<g>
				<g>
					<path class="st7" d="M1145.15,1262.81H402.44c-29.2,0-52.88-22.75-52.88-50.69V507.76c0-28.06,23.68-50.73,52.88-50.73h742.71
						c29.2,0,52.96,22.68,52.96,50.73v704.36C1198.1,1240.06,1174.35,1262.81,1145.15,1262.81z M402.44,474.94
						c-19.3,0-35,14.72-35,32.82v704.36c0,18.03,15.69,32.71,35,32.71h742.71c19.34,0,35.04-14.68,35.04-32.71V507.76
						c0-18.1-15.69-32.82-35.04-32.82H402.44z"/>
					<path class="st8" d="M999.44,400.76c0,10.3-8.52,18.72-18.77,18.72h-407.5c-10.36,0-18.69-8.42-18.69-18.72V266.24
						c0-10.34,8.33-18.8,18.69-18.8h407.5c10.25,0,18.77,8.46,18.77,18.8V400.76z"/>
					<g>
						<g>
							<polygon class="st6" points="919.46,396.15 978.25,396.15 969.43,387 928.37,387 							"/>
							<polygon class="st6" points="979.94,392.8 979.94,332.23 971.31,341.07 971.31,383.96 							"/>
							<polygon class="st6" points="979.94,329.81 979.94,269.16 971.31,278.07 971.31,320.97 							"/>
							<polygon class="st6" points="917.89,332.23 917.89,392.8 926.45,383.96 926.45,341.07 							"/>
							<polygon class="st6" points="917.89,269.16 917.89,329.81 926.45,320.97 926.45,278.07 							"/>
							<polygon class="st6" points="978.25,267.78 919.46,267.78 928.37,276.96 969.43,276.96 							"/>
						</g>
					</g>
					<g>
						<g>
							<polygon class="st6" points="846.17,396.15 904.96,396.15 896.09,387 854.99,387 							"/>
							<polygon class="st6" points="906.61,392.8 906.61,332.23 898.05,341.07 898.05,383.96 							"/>
							<polygon class="st6" points="906.61,329.81 906.61,269.16 898.05,278.07 898.05,320.97 							"/>
							<polygon class="st6" points="844.56,332.23 844.56,392.8 853.11,383.96 853.11,341.07 							"/>
							<polygon class="st6" points="844.56,269.16 844.56,329.81 853.11,320.97 853.11,278.07 							"/>
							<polygon class="st6" points="904.96,267.78 846.17,267.78 854.99,276.96 896.09,276.96 							"/>
						</g>
					</g>
					<g>
						<g>
							<polygon class="st6" points="747.08,396.15 805.8,396.15 796.93,387 755.91,387 							"/>
							<polygon class="st6" points="807.41,392.8 807.41,332.23 798.89,341.07 798.89,383.96 							"/>
							<polygon class="st6" points="807.41,329.81 807.41,269.16 798.89,278.07 798.89,320.97 							"/>
							<polygon class="st6" points="745.43,332.23 745.43,392.8 753.99,383.96 753.99,341.07 							"/>
							<polygon class="st6" points="745.43,269.16 745.43,329.81 753.99,320.97 753.99,278.07 							"/>
							<polygon class="st6" points="805.8,267.78 747.08,267.78 755.91,276.96 796.97,276.96 							"/>
						</g>
					</g>
					<g>
						<rect x="819.69" y="387.42" class="st6" width="8.71" height="8.72"/>
					</g>
				</g>
			</g>
			<g>
				<g>
					<g>
						<path class="st9" d="M478.5,703.74c-0.69,13.84-8.56,23.41-17.5,21.45c-9.02-2-15.66-14.72-15-28.52
							c0.81-13.72,8.64-23.37,17.61-21.41C472.55,677.22,479.23,690.02,478.5,703.74z"/>
						<path class="st9" d="M472.55,657.89c-0.96-20.14,7.1-37.09,18.11-37.67c10.94-0.65,20.68,15.14,21.64,35.36
							c1,20.14-7.1,37.05-18,37.67C483.29,693.9,473.58,678.11,472.55,657.89z"/>
						<path class="st9" d="M521.44,626.87c0.81-23.71,12.28-42.24,25.56-41.24c13.32,0.96,23.37,20.87,22.49,44.74
							c-0.88,23.71-12.32,42.2-25.56,41.24C530.61,670.69,520.59,650.7,521.44,626.87z"/>
						<path class="st9" d="M580.31,615.99c8.02-25.48,26.67-40.51,41.52-33.55c14.97,7,20.46,33.32,12.51,58.81
							c-8.06,25.52-26.67,40.51-41.6,33.59C577.85,667.88,572.25,641.52,580.31,615.99z"/>
						<path class="st9" d="M657.55,624.3c-19.88,20.91-25.52,50.58-12.7,66.38c12.93,15.76,39.41,11.65,59.29-9.3
							c19.8-20.87,25.48-50.66,12.66-66.42C703.99,599.2,677.39,603.31,657.55,624.3z"/>
					</g>
					<path class="st9" d="M611.62,1053.84c-25.56-38.9-14.01-125.3,32.12-215.16c65.47-127.72-43.75-170.73-104.96-149.2
						C477.69,710.97,422.81,776,452.02,929.7c26.71,140.59,68.42,264.2,150.39,256.17C647.23,1181.45,653.83,1118.26,611.62,1053.84
						z"/>
				</g>
			</g>
			<g>
				<g>
					<g>
						<path class="st9" d="M1055.27,703.74c0.73,13.84,8.56,23.41,17.54,21.45c8.98-2,15.66-14.72,14.97-28.52
							c-0.73-13.72-8.6-23.37-17.58-21.41C1061.26,677.22,1054.54,690.02,1055.27,703.74z"/>
						<path class="st9" d="M1061.22,657.89c0.96-20.14-7.1-37.09-18.07-37.67c-10.94-0.65-20.68,15.14-21.68,35.36
							c-1,20.14,7.1,37.05,18,37.67C1050.47,693.9,1060.18,678.11,1061.22,657.89z"/>
						<path class="st9" d="M1012.33,626.87c-0.81-23.71-12.24-42.24-25.56-41.24c-13.28,0.96-23.37,20.87-22.49,44.74
							c0.88,23.71,12.32,42.2,25.6,41.24C1003.16,670.69,1013.25,650.7,1012.33,626.87z"/>
						<path class="st9" d="M953.5,615.99c-8.06-25.48-26.67-40.51-41.6-33.55c-14.93,7-20.41,33.32-12.43,58.81
							c8.02,25.52,26.63,40.51,41.6,33.59C956,667.88,961.52,641.52,953.5,615.99z"/>
						<path class="st9" d="M876.29,624.3c19.84,20.91,25.44,50.58,12.66,66.38c-12.89,15.76-39.41,11.65-59.29-9.3
							c-19.84-20.87-25.48-50.66-12.67-66.42C829.86,599.2,856.37,603.31,876.29,624.3z"/>
					</g>
					<path class="st9" d="M922.15,1053.84c25.56-38.9,14.04-125.3-32.12-215.16c-65.47-127.72,43.79-170.73,104.92-149.2
						c61.13,21.49,116.04,86.52,86.8,240.22c-26.67,140.59-68.38,264.2-150.35,256.17C886.58,1181.45,880.05,1118.26,922.15,1053.84
						z"/>
				</g>
			</g>
		</g>
	</g>
</g>
</svg>
